<?xml version="1.0" standalone="no"?><!DOCTYPE svg PUBLIC "-//W3C//DTD SVG 1.1//EN" "http://www.w3.org/Graphics/SVG/1.1/DTD/svg11.dtd"><svg class="icon" width="200px" height="200.00px" viewBox="0 0 1024 1024" version="1.1" xmlns="http://www.w3.org/2000/svg"><path d="M512 117.344C294.048 117.344 117.344 294.048 117.344 512S294.048 906.656 512 906.656 906.656 729.952 906.656 512c0-27.072-2.72-53.472-7.904-78.976a32 32 0 0 1 62.72-12.736c6.016 29.664 9.184 60.32 9.184 91.712 0 253.312-205.344 458.656-458.656 458.656S53.344 765.312 53.344 512 258.688 53.344 512 53.344c31.36 0 62.048 3.168 91.712 9.184a32 32 0 0 1-12.736 62.72A396.096 396.096 0 0 0 512 117.344z m449.216-54.368a31.968 31.968 0 0 1-0.224 45.248l-155.008 153.568c37.344 3.296 83.968 4.48 111.584 4.864a32 32 0 1 1-0.896 64c-35.712-0.48-112.384-2.336-155.68-9.984a70.72 70.72 0 0 1-39.712-21.312 71.2 71.2 0 0 1-17.952-36.384c-7.648-43.296-9.504-119.968-9.984-155.68a32 32 0 0 1 64-0.896c0.384 26.976 1.504 72.064 4.64 108.96l154.016-152.576a31.968 31.968 0 0 1 45.248 0.224zM544 341.344a32 32 0 0 0-64 0v14.24a126.272 126.272 0 0 0-47.552 21.568c-21.504 16.128-37.792 40.864-37.792 70.848s16.288 54.72 37.792 70.848S482.176 544 512 544c17.312 0 31.744 5.312 41.152 12.352s12.192 14.304 12.192 19.648-2.816 12.608-12.192 19.648c-9.376 7.04-23.84 12.352-41.152 12.352-28.512 0-46.528-13.696-51.52-24.32a31.968 31.968 0 1 0-57.888 27.296c14.08 29.856 43.776 49.696 77.44 57.408v14.272a32 32 0 0 0 64 0v-14.24a126.272 126.272 0 0 0 47.552-21.568c21.504-16.128 37.792-40.864 37.792-70.848s-16.288-54.72-37.792-70.848S541.856 480 512.032 480c-17.312 0-31.744-5.312-41.152-12.352s-12.192-14.304-12.192-19.648 2.816-12.608 12.192-19.648c9.376-7.04 23.84-12.352 41.152-12.352 28.512 0 46.528 13.696 51.52 24.32a31.968 31.968 0 1 0 57.888-27.296c-14.08-29.856-43.776-49.696-77.408-57.408v-14.272z" /></svg>