<?xml version="1.0" standalone="no"?><!DOCTYPE svg PUBLIC "-//W3C//DTD SVG 1.1//EN" "http://www.w3.org/Graphics/SVG/1.1/DTD/svg11.dtd"><svg class="icon" width="200px" height="200.00px" viewBox="0 0 1024 1024" version="1.1" xmlns="http://www.w3.org/2000/svg"><path d="M512 117.344C294.048 117.344 117.344 294.048 117.344 512S294.048 906.656 512 906.656 906.656 729.952 906.656 512c0-27.072-2.72-53.472-7.904-78.976a32 32 0 0 1 62.72-12.736c6.016 29.664 9.184 60.32 9.184 91.712 0 253.312-205.344 458.656-458.656 458.656S53.344 765.312 53.344 512 258.688 53.344 512 53.344c31.36 0 62.048 3.168 91.712 9.184a32 32 0 0 1-12.736 62.72A396.096 396.096 0 0 0 512 117.344z m0 192a32 32 0 0 1 32 32v14.272c33.664 7.712 63.36 27.552 77.408 57.408a32 32 0 0 1-57.888 27.296c-4.992-10.624-23.008-24.32-51.52-24.32-17.312 0-31.744 5.312-41.152 12.352s-12.192 14.304-12.192 19.648 2.816 12.608 12.192 19.648c9.376 7.04 23.84 12.352 41.152 12.352 29.824 0 58.048 9.024 79.552 25.152s37.792 40.864 37.792 70.848-16.288 54.72-37.792 70.848a126.048 126.048 0 0 1-47.552 21.568v14.24a32 32 0 0 1-64 0v-14.272c-33.664-7.712-63.36-27.552-77.408-57.408a32 32 0 0 1 57.888-27.296c4.992 10.624 23.008 24.32 51.52 24.32 17.312 0 31.744-5.312 41.152-12.352s12.192-14.304 12.192-19.648-2.816-12.608-12.192-19.648C543.776 549.312 529.312 544 512 544c-29.824 0-58.048-9.024-79.552-25.152S394.656 477.984 394.656 448s16.288-54.72 37.792-70.848A126.048 126.048 0 0 1 480 355.584v-14.24a32 32 0 0 1 32-32z m235.104-255.84a32 32 0 0 0-0.896 64c27.616 0.384 74.24 1.536 111.584 4.864l-155.008 153.568a32 32 0 0 0 45.024 45.472l154.016-152.576c3.136 36.896 4.256 81.984 4.64 108.96a32 32 0 1 0 64-0.896c-0.48-35.712-2.336-112.384-9.984-155.68a71.264 71.264 0 0 0-17.824-36.224l-0.256-0.256a70.848 70.848 0 0 0-39.616-21.216c-43.296-7.68-120-9.504-155.68-9.984z" /></svg>